<svg xmlns="http://www.w3.org/2000/svg" viewBox="0 0 1024 1024" width="100%" height="100%" preserveAspectRatio="xMidYMid meet" version="1.1"><path d="M 367 210.603 C 365.075 210.833, 359.675 211.475, 355 212.029 C 337.818 214.063, 325.987 216.329, 322.972 218.163 C 318.344 220.978, 317 225.321, 317 237.468 L 317 248 305.723 248 C 293.380 248, 291.167 248.761, 289.124 253.710 C 288.270 255.780, 288.040 292.218, 288.236 394.837 L 288.500 533.173 291.306 535.587 L 294.112 538 387.185 538 L 480.258 538 484.259 541.615 C 489.424 546.282, 496.787 549.589, 505.250 551.044 C 517.152 553.091, 530.493 549.406, 539.696 541.528 L 543.818 538 636.986 538 L 730.154 538 733.087 535.067 L 736.021 532.133 735.760 392.480 L 735.500 252.827 732.694 250.413 C 730.082 248.166, 729.100 248, 718.444 248 L 707 248 707 237.468 C 707 225.327, 705.656 220.978, 701.037 218.169 C 697.587 216.071, 679.384 212.673, 662.082 210.897 C 647.588 209.409, 613.209 210.290, 599.019 212.512 C 569.931 217.068, 541.192 227.882, 519.060 242.599 L 512.332 247.073 503.416 241.453 C 480.849 227.229, 452.766 217.359, 421 212.487 C 410.987 210.952, 374.662 209.684, 367 210.603 M 369 228.138 C 362.675 228.607, 352.550 229.783, 346.500 230.752 L 335.500 232.513 335.246 357.366 L 334.992 482.219 337.746 481.494 C 357.009 476.420, 392.295 474.575, 415 477.454 C 440.145 480.642, 466.052 488.683, 483.500 498.714 C 493.174 504.276, 496.479 506.641, 505.264 514.288 L 512.027 520.176 517.592 515.090 C 525.117 508.213, 540.840 497.871, 550.380 493.523 C 568.444 485.291, 590.482 479.251, 610.910 476.933 C 631.256 474.624, 667.704 476.872, 686.526 481.596 L 689 482.217 689 357.234 L 689 232.251 678.419 230.603 C 622.261 221.857, 571.843 230.575, 533 255.750 C 528.325 258.780, 522.413 263.001, 519.861 265.129 C 513.830 270.162, 510.640 270.213, 504.845 265.369 C 484.720 248.548, 455.623 236.270, 422.312 230.540 C 414.331 229.168, 386.270 226.817, 382 227.163 C 381.175 227.230, 375.325 227.668, 369 228.138 M 446.945 289.885 C 429.520 295.461, 416.181 309.689, 411.489 327.703 C 409.388 335.770, 409.583 350.050, 411.919 359.183 C 419.384 388.371, 438.587 409.988, 499.410 457.672 L 512.386 467.844 519.443 462.362 C 540.221 446.220, 568.651 422.268, 577.665 413.311 C 600.907 390.214, 612.641 368.265, 613.775 345.765 C 614.384 333.685, 612.916 325.657, 608.424 316.500 C 602.114 303.636, 592.564 295.125, 579.113 290.377 C 570.946 287.493, 556.327 287.120, 548.035 289.582 C 533.645 293.856, 521.962 302.880, 515.864 314.431 L 512.455 320.888 509.486 315.194 C 503.494 303.707, 489.728 293.141, 475.992 289.485 C 468.396 287.464, 453.887 287.664, 446.945 289.885 M 573.316 573.943 C 563.688 578.315, 563.530 590.603, 573.039 595.520 C 579.266 598.740, 588.495 596.452, 592.031 590.810 C 596.171 584.203, 592.164 575.251, 584.057 572.999 C 579.219 571.655, 578.149 571.749, 573.316 573.943 M 217.685 578.648 C 217.308 579.025, 217 581.008, 217 583.055 C 217 586.509, 217.250 586.824, 220.457 587.426 C 222.451 587.800, 224.791 589.190, 225.987 590.711 C 228.023 593.298, 228.056 594.143, 227.781 635.570 C 227.466 682.860, 227.782 680.907, 220.167 682.708 C 216.707 683.526, 216.500 683.799, 216.500 687.538 L 216.500 691.500 242.500 691.500 L 268.500 691.500 268.500 687.576 L 268.500 683.651 263.158 682.448 C 254.701 680.543, 254.549 680.215, 254.178 662.967 L 253.856 648 262.678 647.980 C 281.254 647.938, 292.736 644.740, 301.007 637.304 C 303.814 634.780, 307.317 630.417, 308.791 627.608 C 311.083 623.241, 311.474 621.266, 311.486 614 C 311.498 606.887, 311.070 604.583, 308.865 599.880 C 307.415 596.789, 304.565 592.418, 302.531 590.166 C 297.896 585.035, 288.565 580.301, 281.729 579.611 C 273.034 578.733, 218.421 577.912, 217.685 578.648 M 254 613 L 254 636 259.951 636 C 278.067 636, 284.931 629.998, 284.978 614.116 C 285.005 604.903, 283.470 599.641, 279.538 595.471 C 275.804 591.512, 270.787 590.013, 261.250 590.006 L 254 590 254 613 M 342 608.408 C 331.345 611.606, 325.196 615.897, 322.099 622.296 C 319.787 627.072, 318.843 636.261, 320.500 637.870 C 321.126 638.478, 323.369 638.511, 326.500 637.959 C 329.250 637.473, 333.188 636.813, 335.250 636.492 C 338.841 635.934, 339 635.744, 339 632.020 C 339 626.917, 340.378 623.481, 343.636 620.462 C 345.768 618.485, 347.344 618, 351.630 618 C 356.115 618, 357.491 618.467, 360.234 620.917 C 363.430 623.771, 363.507 624.038, 363.847 633.417 C 364.037 638.688, 363.812 643.003, 363.347 643.006 C 362.881 643.009, 358.192 643.661, 352.926 644.455 C 324.533 648.735, 313.457 659.258, 317.330 678.271 C 318.278 682.924, 322.991 688.445, 328.349 691.178 C 336.854 695.517, 351.382 692.070, 360.924 683.450 L 364.776 679.970 365.433 682.589 C 367.179 689.546, 372.274 693, 380.790 693 C 387.509 693, 394.174 690.507, 399.050 686.169 C 402.652 682.964, 403.082 682.140, 402.454 679.651 C 401.747 676.854, 401.639 676.815, 396.432 677.465 C 388.450 678.463, 388.339 678.125, 387.693 650.876 C 387.373 637.391, 386.656 626.583, 385.917 624.119 C 384.157 618.244, 378.989 612.677, 372.794 609.979 C 366.218 607.117, 349.195 606.248, 342 608.408 M 431.734 608.019 C 421.534 610.609, 414.015 616.671, 410.998 624.736 C 407.635 633.724, 408.821 641.095, 414.745 648.015 C 419.161 653.174, 424.208 656.076, 436.519 660.532 C 451.342 665.897, 455.976 670.368, 453.147 676.576 C 450.514 682.355, 438.746 685.010, 430.688 681.643 C 426.323 679.819, 421.528 674.870, 419.356 669.945 C 417.654 666.089, 417.391 665.919, 413.537 666.203 L 409.500 666.500 409.217 676.013 C 409.021 682.583, 409.330 686.062, 410.217 687.257 C 410.948 688.244, 415.102 689.895, 419.879 691.098 C 431.156 693.937, 447.611 693.467, 456.365 690.056 C 467.405 685.753, 474.378 675.874, 474.458 664.422 C 474.543 652.214, 466.903 644.921, 447.816 638.991 C 435.857 635.276, 431.600 632.043, 431.600 626.676 C 431.600 622.276, 434.071 619.359, 439.066 617.862 C 447.112 615.451, 454.865 619.279, 458.641 627.526 C 461.131 632.965, 461.175 633, 465.606 633 L 470.066 633 469.783 621.772 L 469.500 610.543 464 609.243 C 456.875 607.558, 436.580 606.789, 431.734 608.019 M 505.776 608.409 C 490.609 612.808, 481.829 625.194, 484.949 637.789 C 487.575 648.385, 493.860 653.827, 510.683 660.068 C 516.543 662.242, 522.784 665.123, 524.551 666.471 C 533.102 672.993, 527.457 682.988, 515.218 682.996 C 505.939 683.003, 498.149 678.093, 494.461 669.913 C 492.852 666.346, 492.356 666, 488.848 666 C 486.732 666, 484.953 666.337, 484.895 666.750 C 484.293 671.064, 484.452 684.877, 485.119 686.166 C 485.593 687.083, 488.123 688.513, 490.740 689.345 C 513.525 696.583, 535.670 692.741, 544.485 680.021 C 551.746 669.544, 551.668 659.066, 544.267 650.874 C 539.567 645.671, 534.395 642.773, 524.057 639.546 C 512.489 635.935, 509.156 634.202, 507.456 630.915 C 505.316 626.776, 505.656 624.417, 508.918 620.766 C 511.581 617.785, 512.345 617.500, 517.668 617.500 C 525.699 617.500, 530.420 620.492, 533.703 627.661 C 536.123 632.949, 536.189 633, 540.606 633 L 545.066 633 544.783 621.772 L 544.500 610.543 539 609.243 C 530.577 607.251, 511.425 606.771, 505.776 608.409 M 643.580 608.107 C 620.267 611.507, 606.595 631.046, 609.109 657.368 C 610.847 675.559, 623.237 689.024, 641.799 692.895 C 663.287 697.376, 683.448 687.944, 692.291 669.274 C 695.370 662.773, 695.500 661.995, 695.500 650 C 695.500 638.032, 695.365 637.215, 692.326 630.799 C 686.482 618.464, 675.279 610.329, 661 608.052 C 653.673 606.883, 651.935 606.889, 643.580 608.107 M 758 607.937 C 753.338 609.364, 745.397 613.826, 742.192 616.821 L 739 619.802 739 615.024 C 739 607.518, 738.024 607.208, 724.207 610.330 C 717.768 611.785, 710.587 613.263, 708.250 613.616 C 704.136 614.235, 704 614.373, 704 617.936 C 704 621.448, 704.193 621.659, 708.235 622.558 C 714.906 624.042, 715.079 624.848, 714.769 653.047 C 714.471 680.257, 714.047 682.172, 708.033 683.493 C 704.858 684.190, 702.812 688.212, 704.681 690.081 C 705.196 690.596, 715.378 691.125, 727.309 691.258 L 749.001 691.500 749.001 687.789 C 749 684.323, 748.742 684.008, 745.116 683.031 C 738.416 681.227, 738.461 681.434, 738.839 654.590 C 739.217 627.765, 738.993 628.634, 746.448 625.025 C 751.583 622.539, 760.554 622.299, 763.783 624.561 C 769.054 628.252, 769.500 630.679, 769.500 655.644 C 769.500 676.776, 769.339 678.967, 767.646 680.838 C 766.627 681.965, 764.465 683.178, 762.841 683.535 C 760.176 684.120, 759.920 684.522, 760.195 687.682 L 760.500 691.182 782 691.182 L 803.500 691.182 803.808 687.625 C 804.085 684.438, 803.824 684.002, 801.308 683.441 C 795.639 682.176, 795.147 681.860, 794.084 678.810 C 793.423 676.914, 793 666.409, 793 651.888 C 793 630.282, 792.809 627.564, 790.937 622.562 C 788.509 616.073, 783.057 610.889, 776.205 608.554 C 771.446 606.933, 762.295 606.622, 758 607.937 M 579 609.985 C 574.875 611.020, 568.462 612.387, 564.750 613.023 L 558 614.181 558 617.979 C 558 621.530, 558.229 621.820, 561.508 622.435 C 567.951 623.644, 568.165 624.689, 567.813 653.318 C 567.467 681.476, 567.327 682.085, 560.888 683.372 C 558.125 683.925, 557.903 684.273, 558.189 687.609 L 558.500 691.244 580.500 691.193 L 602.500 691.143 602.500 687.369 C 602.500 683.773, 602.303 683.546, 598.320 682.548 C 596.020 681.972, 593.770 681.126, 593.320 680.668 C 592.869 680.210, 592.275 663.785, 592 644.168 L 591.500 608.500 589 608.302 C 587.625 608.194, 583.125 608.951, 579 609.985 M 643.183 620.030 C 637.955 623.217, 634.922 630.985, 634.268 642.866 C 632.844 668.701, 642.533 686.150, 656.547 682.989 C 661.215 681.937, 664.738 678.670, 667.323 673 C 670.214 666.661, 670.916 647.148, 668.584 637.967 C 664.419 621.569, 653.410 613.795, 643.183 620.030 M 357 652.387 C 350.385 653.854, 346.351 655.900, 343 659.486 C 339.510 663.221, 339.413 671.682, 342.820 675.308 C 347.093 679.857, 354.932 679.453, 360.969 674.373 C 363.986 671.834, 364 671.775, 364 661.411 C 364 655.685, 363.663 651.038, 363.250 651.084 C 362.837 651.130, 360.025 651.716, 357 652.387 M 231.667 718.667 C 231.300 719.033, 231 720.777, 231 722.542 C 231 725.259, 231.431 725.836, 233.812 726.312 C 235.358 726.622, 237.721 727.763, 239.062 728.848 L 241.500 730.821 241.794 769.389 C 242.124 812.571, 241.859 815.070, 236.743 816.964 C 231.065 819.067, 230.493 819.630, 230.655 822.960 C 230.741 824.711, 230.981 826.314, 231.189 826.522 C 231.397 826.730, 250.452 826.978, 273.534 827.073 L 315.500 827.246 316.678 824.873 C 318.113 821.983, 320.992 805.915, 320.997 800.773 C 321 796.479, 318.104 793.901, 312.994 793.650 C 310.186 793.512, 309.760 793.946, 307.641 799.108 C 302.987 810.444, 299.814 813.103, 288.611 815.054 C 281.427 816.305, 269.469 815.568, 268.381 813.808 C 268.029 813.238, 267.819 794.500, 267.913 772.168 C 268.105 726.888, 267.759 729.051, 275.163 726.833 C 279.215 725.619, 279.988 723.716, 277.965 719.934 C 276.989 718.111, 275.654 718, 254.631 718 C 242.368 718, 232.033 718.300, 231.667 718.667 M 509.304 730.716 C 503.547 738.074, 496.500 744.247, 490.250 747.408 C 487.404 748.847, 487 749.546, 487 753.026 L 487 757 492.500 757 L 498 757 498 782.818 C 498 811.375, 498.702 816.058, 503.817 821.646 C 508.638 826.912, 512.589 828.476, 521 828.447 C 527.585 828.424, 529.270 828.008, 534.814 825.037 C 542.657 820.834, 545.098 817.981, 544.063 814.231 C 543.237 811.239, 542.717 811.168, 535.773 813.092 C 529.885 814.724, 526.257 813.626, 523.890 809.495 C 522.430 806.946, 522.115 802.813, 521.777 781.750 L 521.380 757 532.145 757 L 542.909 757 543.550 753.587 C 543.902 751.710, 543.892 749.235, 543.528 748.087 C 542.909 746.138, 542.139 746, 531.884 746 L 520.902 746 521.072 736.101 C 521.166 730.657, 520.970 725.760, 520.636 725.221 C 520.303 724.681, 518.922 724.027, 517.569 723.768 C 515.477 723.369, 514.238 724.410, 509.304 730.716 M 360.176 745.009 C 345.800 748.040, 333.741 758.721, 328.940 772.673 C 326.496 779.777, 326.313 794.256, 328.568 802.068 C 333.309 818.499, 348.123 828.953, 366.715 828.988 C 377.872 829.009, 386.096 824.922, 393.957 815.451 C 398.872 809.528, 399.883 806.454, 397.651 804.223 C 396.174 802.746, 395.737 802.877, 392.272 805.840 C 386.909 810.426, 382.319 812.270, 376 812.376 C 361.539 812.619, 352.520 803.711, 350.564 787.250 L 350.059 783 373.994 783 C 397.055 783, 397.969 782.926, 399.020 780.962 C 401.581 776.176, 397.080 761.644, 390.840 754.556 C 383.457 746.167, 371.838 742.550, 360.176 745.009 M 439.746 745.086 C 428.860 747.651, 415.154 759.054, 410.354 769.538 C 405.800 779.485, 405.650 793.751, 409.978 805.247 C 412.628 812.286, 420.521 821.227, 426.908 824.426 C 437.225 829.593, 451.733 830.341, 461.170 826.193 C 472.783 821.088, 485.451 804, 477.622 804 C 476.315 804, 474.657 804.708, 473.939 805.573 C 471.105 808.989, 464.856 811.192, 457.880 811.236 C 440.266 811.346, 428.881 797.150, 430.275 776.813 C 430.886 767.901, 433.539 761.407, 438.155 757.523 C 440.546 755.511, 442.241 755, 446.521 755 C 453.556 755, 456.550 757.499, 458.503 765 C 459.299 768.056, 460.888 771.278, 462.079 772.250 C 464.462 774.197, 471.026 774.591, 474.055 772.970 C 476.703 771.554, 479 766.781, 479 762.698 C 479 750.644, 457.359 740.935, 439.746 745.086 M 566.500 747.080 C 559.900 748.662, 553.536 749.966, 552.357 749.978 C 550.049 750.002, 549 751.749, 549 755.568 C 549 757.336, 549.861 758.333, 552.250 759.332 C 554.038 760.079, 556.010 761.322, 556.633 762.095 C 557.363 762.999, 557.948 771.340, 558.277 785.500 C 558.880 811.498, 559.842 815.895, 566.349 822.402 C 571.560 827.613, 577.614 829.556, 585.686 828.607 C 592.437 827.814, 601.931 823.475, 607.659 818.565 C 609.946 816.604, 612.084 815, 612.409 815 C 612.734 815, 613 817.714, 613 821.031 C 613 825.490, 613.394 827.214, 614.511 827.643 C 615.953 828.196, 641.038 826.422, 645.750 825.434 C 647.527 825.061, 648 824.276, 648 821.700 C 648 818.760, 647.581 818.294, 643.750 816.969 C 636.179 814.352, 636.003 813.438, 636.002 776.719 C 636 750.779, 635.749 744.841, 634.634 744.413 C 633.883 744.125, 629.495 744.864, 624.884 746.056 C 620.273 747.248, 613.350 748.763, 609.500 749.423 L 602.500 750.623 602.193 754.255 C 601.901 757.710, 602.061 757.921, 605.467 758.560 C 611.719 759.733, 612 760.873, 612 785.068 C 612 808.918, 612.274 807.848, 605.267 811.396 C 596.635 815.768, 588.132 813.763, 584.500 806.500 C 582.620 802.739, 582.518 800.836, 582.801 774.663 C 583.101 746.795, 582.792 743.817, 579.628 744.102 C 579.007 744.157, 573.100 745.498, 566.500 747.080 M 706.073 745.248 C 702.377 746.220, 691.662 756.338, 690.520 759.936 C 689.244 763.958, 688.500 761.906, 688.500 754.365 C 688.500 744.027, 688.373 743.969, 672.858 747.296 C 666.061 748.754, 659.150 750.071, 657.500 750.223 C 654.718 750.480, 654.500 750.788, 654.500 754.459 C 654.500 758.149, 654.728 758.465, 657.861 759.105 C 664.592 760.482, 664.536 760.218, 664.177 788.741 C 663.999 802.855, 663.430 815.197, 662.911 816.167 C 662.392 817.136, 660.152 818.473, 657.933 819.138 C 654.243 820.244, 653.925 820.609, 654.200 823.423 L 654.500 826.500 676.850 827 C 697.094 827.453, 699.285 827.341, 700.100 825.815 C 700.644 824.799, 700.614 823.114, 700.025 821.565 C 699.286 819.622, 698.343 819, 696.136 819 C 694.533 819, 692.159 818.140, 690.861 817.090 C 688.521 815.197, 688.497 814.976, 688.199 792.203 L 687.897 769.226 690.611 767.091 C 695.037 763.610, 697.554 763.502, 704.950 766.480 C 713.004 769.722, 715.288 769.315, 717.912 764.172 C 720.422 759.252, 722.159 752.577, 721.426 750.667 C 719.902 746.695, 711.651 743.783, 706.073 745.248 M 756.045 745.032 C 743.889 747.580, 732.248 756.991, 726.735 768.726 C 723.958 774.636, 723.503 776.791, 723.168 785.620 C 722.395 805.946, 729.248 818.161, 745.664 825.719 C 753.874 829.498, 767.055 830.111, 775.079 827.087 C 781.734 824.579, 787.666 819.729, 791.902 813.335 C 795.306 808.194, 795.733 805.853, 793.587 804.072 C 792.460 803.137, 791.096 803.715, 786.851 806.928 C 778.388 813.334, 768.217 814.301, 759.148 809.562 C 752.290 805.979, 747.058 796.782, 747.022 788.250 L 747 783 770.521 783 L 794.043 783 795.161 780.547 C 796.548 777.502, 794.773 767.436, 791.834 761.675 C 788.971 756.063, 782.491 749.416, 777.551 747.024 C 772.568 744.613, 762.496 743.679, 756.045 745.032 M 357.934 757.709 C 354.537 760.567, 351.059 767.061, 351.022 770.614 C 351.004 772.376, 351.774 772.834, 355.640 773.364 C 358.191 773.714, 364.041 774, 368.640 774 L 377 774 377 769.468 C 377 760.233, 372.788 755, 365.354 755 C 362.246 755, 360.316 755.705, 357.934 757.709 M 753.560 758.081 C 750.162 761.065, 745.792 771.125, 747.257 772.591 C 747.596 772.929, 753.583 773.452, 760.562 773.754 L 773.252 774.302 772.820 767.519 C 772.431 761.403, 772.073 760.454, 769.178 757.868 C 764.565 753.746, 758.402 753.830, 753.560 758.081" stroke="none" fill="#0a505a" fill-rule="evenodd"/><path d="M 0 512.001 L 0 1024.002 512.250 1023.751 L 1024.500 1023.500 1024.751 511.750 L 1025.002 0 512.501 0 L 0 0 0 512.001 M 0.496 512.500 C 0.496 794.100, 0.610 909.151, 0.750 768.168 C 0.890 627.186, 0.890 396.786, 0.750 256.168 C 0.610 115.551, 0.496 230.900, 0.496 512.500 M 367 210.603 C 365.075 210.833, 359.675 211.475, 355 212.029 C 337.818 214.063, 325.987 216.329, 322.972 218.163 C 318.344 220.978, 317 225.321, 317 237.468 L 317 248 305.723 248 C 293.380 248, 291.167 248.761, 289.124 253.710 C 288.270 255.780, 288.040 292.218, 288.236 394.837 L 288.500 533.173 291.306 535.587 L 294.112 538 387.185 538 L 480.258 538 484.259 541.615 C 489.424 546.282, 496.787 549.589, 505.250 551.044 C 517.152 553.091, 530.493 549.406, 539.696 541.528 L 543.818 538 636.986 538 L 730.154 538 733.087 535.067 L 736.021 532.133 735.760 392.480 L 735.500 252.827 732.694 250.413 C 730.082 248.166, 729.100 248, 718.444 248 L 707 248 707 237.468 C 707 225.327, 705.656 220.978, 701.037 218.169 C 697.587 216.071, 679.384 212.673, 662.082 210.897 C 647.588 209.409, 613.209 210.290, 599.019 212.512 C 569.931 217.068, 541.192 227.882, 519.060 242.599 L 512.332 247.073 503.416 241.453 C 480.849 227.229, 452.766 217.359, 421 212.487 C 410.987 210.952, 374.662 209.684, 367 210.603 M 369 228.138 C 362.675 228.607, 352.550 229.783, 346.500 230.752 L 335.500 232.513 335.246 357.366 L 334.992 482.219 337.746 481.494 C 357.009 476.420, 392.295 474.575, 415 477.454 C 440.145 480.642, 466.052 488.683, 483.500 498.714 C 493.174 504.276, 496.479 506.641, 505.264 514.288 L 512.027 520.176 517.592 515.090 C 525.117 508.213, 540.840 497.871, 550.380 493.523 C 568.444 485.291, 590.482 479.251, 610.910 476.933 C 631.256 474.624, 667.704 476.872, 686.526 481.596 L 689 482.217 689 357.234 L 689 232.251 678.419 230.603 C 622.261 221.857, 571.843 230.575, 533 255.750 C 528.325 258.780, 522.413 263.001, 519.861 265.129 C 513.830 270.162, 510.640 270.213, 504.845 265.369 C 484.720 248.548, 455.623 236.270, 422.312 230.540 C 414.331 229.168, 386.270 226.817, 382 227.163 C 381.175 227.230, 375.325 227.668, 369 228.138 M 446.945 289.885 C 429.520 295.461, 416.181 309.689, 411.489 327.703 C 409.388 335.770, 409.583 350.050, 411.919 359.183 C 419.384 388.371, 438.587 409.988, 499.410 457.672 L 512.386 467.844 519.443 462.362 C 540.221 446.220, 568.651 422.268, 577.665 413.311 C 600.907 390.214, 612.641 368.265, 613.775 345.765 C 614.384 333.685, 612.916 325.657, 608.424 316.500 C 602.114 303.636, 592.564 295.125, 579.113 290.377 C 570.946 287.493, 556.327 287.120, 548.035 289.582 C 533.645 293.856, 521.962 302.880, 515.864 314.431 L 512.455 320.888 509.486 315.194 C 503.494 303.707, 489.728 293.141, 475.992 289.485 C 468.396 287.464, 453.887 287.664, 446.945 289.885 M 573.316 573.943 C 563.688 578.315, 563.530 590.603, 573.039 595.520 C 579.266 598.740, 588.495 596.452, 592.031 590.810 C 596.171 584.203, 592.164 575.251, 584.057 572.999 C 579.219 571.655, 578.149 571.749, 573.316 573.943 M 217.685 578.648 C 217.308 579.025, 217 581.008, 217 583.055 C 217 586.509, 217.250 586.824, 220.457 587.426 C 222.451 587.800, 224.791 589.190, 225.987 590.711 C 228.023 593.298, 228.056 594.143, 227.781 635.570 C 227.466 682.860, 227.782 680.907, 220.167 682.708 C 216.707 683.526, 216.500 683.799, 216.500 687.538 L 216.500 691.500 242.500 691.500 L 268.500 691.500 268.500 687.576 L 268.500 683.651 263.158 682.448 C 254.701 680.543, 254.549 680.215, 254.178 662.967 L 253.856 648 262.678 647.980 C 281.254 647.938, 292.736 644.740, 301.007 637.304 C 303.814 634.780, 307.317 630.417, 308.791 627.608 C 311.083 623.241, 311.474 621.266, 311.486 614 C 311.498 606.887, 311.070 604.583, 308.865 599.880 C 307.415 596.789, 304.565 592.418, 302.531 590.166 C 297.896 585.035, 288.565 580.301, 281.729 579.611 C 273.034 578.733, 218.421 577.912, 217.685 578.648 M 254 613 L 254 636 259.951 636 C 278.067 636, 284.931 629.998, 284.978 614.116 C 285.005 604.903, 283.470 599.641, 279.538 595.471 C 275.804 591.512, 270.787 590.013, 261.250 590.006 L 254 590 254 613 M 342 608.408 C 331.345 611.606, 325.196 615.897, 322.099 622.296 C 319.787 627.072, 318.843 636.261, 320.500 637.870 C 321.126 638.478, 323.369 638.511, 326.500 637.959 C 329.250 637.473, 333.188 636.813, 335.250 636.492 C 338.841 635.934, 339 635.744, 339 632.020 C 339 626.917, 340.378 623.481, 343.636 620.462 C 345.768 618.485, 347.344 618, 351.630 618 C 356.115 618, 357.491 618.467, 360.234 620.917 C 363.430 623.771, 363.507 624.038, 363.847 633.417 C 364.037 638.688, 363.812 643.003, 363.347 643.006 C 362.881 643.009, 358.192 643.661, 352.926 644.455 C 324.533 648.735, 313.457 659.258, 317.330 678.271 C 318.278 682.924, 322.991 688.445, 328.349 691.178 C 336.854 695.517, 351.382 692.070, 360.924 683.450 L 364.776 679.970 365.433 682.589 C 367.179 689.546, 372.274 693, 380.790 693 C 387.509 693, 394.174 690.507, 399.050 686.169 C 402.652 682.964, 403.082 682.140, 402.454 679.651 C 401.747 676.854, 401.639 676.815, 396.432 677.465 C 388.450 678.463, 388.339 678.125, 387.693 650.876 C 387.373 637.391, 386.656 626.583, 385.917 624.119 C 384.157 618.244, 378.989 612.677, 372.794 609.979 C 366.218 607.117, 349.195 606.248, 342 608.408 M 431.734 608.019 C 421.534 610.609, 414.015 616.671, 410.998 624.736 C 407.635 633.724, 408.821 641.095, 414.745 648.015 C 419.161 653.174, 424.208 656.076, 436.519 660.532 C 451.342 665.897, 455.976 670.368, 453.147 676.576 C 450.514 682.355, 438.746 685.010, 430.688 681.643 C 426.323 679.819, 421.528 674.870, 419.356 669.945 C 417.654 666.089, 417.391 665.919, 413.537 666.203 L 409.500 666.500 409.217 676.013 C 409.021 682.583, 409.330 686.062, 410.217 687.257 C 410.948 688.244, 415.102 689.895, 419.879 691.098 C 431.156 693.937, 447.611 693.467, 456.365 690.056 C 467.405 685.753, 474.378 675.874, 474.458 664.422 C 474.543 652.214, 466.903 644.921, 447.816 638.991 C 435.857 635.276, 431.600 632.043, 431.600 626.676 C 431.600 622.276, 434.071 619.359, 439.066 617.862 C 447.112 615.451, 454.865 619.279, 458.641 627.526 C 461.131 632.965, 461.175 633, 465.606 633 L 470.066 633 469.783 621.772 L 469.500 610.543 464 609.243 C 456.875 607.558, 436.580 606.789, 431.734 608.019 M 505.776 608.409 C 490.609 612.808, 481.829 625.194, 484.949 637.789 C 487.575 648.385, 493.860 653.827, 510.683 660.068 C 516.543 662.242, 522.784 665.123, 524.551 666.471 C 533.102 672.993, 527.457 682.988, 515.218 682.996 C 505.939 683.003, 498.149 678.093, 494.461 669.913 C 492.852 666.346, 492.356 666, 488.848 666 C 486.732 666, 484.953 666.337, 484.895 666.750 C 484.293 671.064, 484.452 684.877, 485.119 686.166 C 485.593 687.083, 488.123 688.513, 490.740 689.345 C 513.525 696.583, 535.670 692.741, 544.485 680.021 C 551.746 669.544, 551.668 659.066, 544.267 650.874 C 539.567 645.671, 534.395 642.773, 524.057 639.546 C 512.489 635.935, 509.156 634.202, 507.456 630.915 C 505.316 626.776, 505.656 624.417, 508.918 620.766 C 511.581 617.785, 512.345 617.500, 517.668 617.500 C 525.699 617.500, 530.420 620.492, 533.703 627.661 C 536.123 632.949, 536.189 633, 540.606 633 L 545.066 633 544.783 621.772 L 544.500 610.543 539 609.243 C 530.577 607.251, 511.425 606.771, 505.776 608.409 M 643.580 608.107 C 620.267 611.507, 606.595 631.046, 609.109 657.368 C 610.847 675.559, 623.237 689.024, 641.799 692.895 C 663.287 697.376, 683.448 687.944, 692.291 669.274 C 695.370 662.773, 695.500 661.995, 695.500 650 C 695.500 638.032, 695.365 637.215, 692.326 630.799 C 686.482 618.464, 675.279 610.329, 661 608.052 C 653.673 606.883, 651.935 606.889, 643.580 608.107 M 758 607.937 C 753.338 609.364, 745.397 613.826, 742.192 616.821 L 739 619.802 739 615.024 C 739 607.518, 738.024 607.208, 724.207 610.330 C 717.768 611.785, 710.587 613.263, 708.250 613.616 C 704.136 614.235, 704 614.373, 704 617.936 C 704 621.448, 704.193 621.659, 708.235 622.558 C 714.906 624.042, 715.079 624.848, 714.769 653.047 C 714.471 680.257, 714.047 682.172, 708.033 683.493 C 704.858 684.190, 702.812 688.212, 704.681 690.081 C 705.196 690.596, 715.378 691.125, 727.309 691.258 L 749.001 691.500 749.001 687.789 C 749 684.323, 748.742 684.008, 745.116 683.031 C 738.416 681.227, 738.461 681.434, 738.839 654.590 C 739.217 627.765, 738.993 628.634, 746.448 625.025 C 751.583 622.539, 760.554 622.299, 763.783 624.561 C 769.054 628.252, 769.500 630.679, 769.500 655.644 C 769.500 676.776, 769.339 678.967, 767.646 680.838 C 766.627 681.965, 764.465 683.178, 762.841 683.535 C 760.176 684.120, 759.920 684.522, 760.195 687.682 L 760.500 691.182 782 691.182 L 803.500 691.182 803.808 687.625 C 804.085 684.438, 803.824 684.002, 801.308 683.441 C 795.639 682.176, 795.147 681.860, 794.084 678.810 C 793.423 676.914, 793 666.409, 793 651.888 C 793 630.282, 792.809 627.564, 790.937 622.562 C 788.509 616.073, 783.057 610.889, 776.205 608.554 C 771.446 606.933, 762.295 606.622, 758 607.937 M 579 609.985 C 574.875 611.020, 568.462 612.387, 564.750 613.023 L 558 614.181 558 617.979 C 558 621.530, 558.229 621.820, 561.508 622.435 C 567.951 623.644, 568.165 624.689, 567.813 653.318 C 567.467 681.476, 567.327 682.085, 560.888 683.372 C 558.125 683.925, 557.903 684.273, 558.189 687.609 L 558.500 691.244 580.500 691.193 L 602.500 691.143 602.500 687.369 C 602.500 683.773, 602.303 683.546, 598.320 682.548 C 596.020 681.972, 593.770 681.126, 593.320 680.668 C 592.869 680.210, 592.275 663.785, 592 644.168 L 591.500 608.500 589 608.302 C 587.625 608.194, 583.125 608.951, 579 609.985 M 643.183 620.030 C 637.955 623.217, 634.922 630.985, 634.268 642.866 C 632.844 668.701, 642.533 686.150, 656.547 682.989 C 661.215 681.937, 664.738 678.670, 667.323 673 C 670.214 666.661, 670.916 647.148, 668.584 637.967 C 664.419 621.569, 653.410 613.795, 643.183 620.030 M 357 652.387 C 350.385 653.854, 346.351 655.900, 343 659.486 C 339.510 663.221, 339.413 671.682, 342.820 675.308 C 347.093 679.857, 354.932 679.453, 360.969 674.373 C 363.986 671.834, 364 671.775, 364 661.411 C 364 655.685, 363.663 651.038, 363.250 651.084 C 362.837 651.130, 360.025 651.716, 357 652.387 M 231.667 718.667 C 231.300 719.033, 231 720.777, 231 722.542 C 231 725.259, 231.431 725.836, 233.812 726.312 C 235.358 726.622, 237.721 727.763, 239.062 728.848 L 241.500 730.821 241.794 769.389 C 242.124 812.571, 241.859 815.070, 236.743 816.964 C 231.065 819.067, 230.493 819.630, 230.655 822.960 C 230.741 824.711, 230.981 826.314, 231.189 826.522 C 231.397 826.730, 250.452 826.978, 273.534 827.073 L 315.500 827.246 316.678 824.873 C 318.113 821.983, 320.992 805.915, 320.997 800.773 C 321 796.479, 318.104 793.901, 312.994 793.650 C 310.186 793.512, 309.760 793.946, 307.641 799.108 C 302.987 810.444, 299.814 813.103, 288.611 815.054 C 281.427 816.305, 269.469 815.568, 268.381 813.808 C 268.029 813.238, 267.819 794.500, 267.913 772.168 C 268.105 726.888, 267.759 729.051, 275.163 726.833 C 279.215 725.619, 279.988 723.716, 277.965 719.934 C 276.989 718.111, 275.654 718, 254.631 718 C 242.368 718, 232.033 718.300, 231.667 718.667 M 509.304 730.716 C 503.547 738.074, 496.500 744.247, 490.250 747.408 C 487.404 748.847, 487 749.546, 487 753.026 L 487 757 492.500 757 L 498 757 498 782.818 C 498 811.375, 498.702 816.058, 503.817 821.646 C 508.638 826.912, 512.589 828.476, 521 828.447 C 527.585 828.424, 529.270 828.008, 534.814 825.037 C 542.657 820.834, 545.098 817.981, 544.063 814.231 C 543.237 811.239, 542.717 811.168, 535.773 813.092 C 529.885 814.724, 526.257 813.626, 523.890 809.495 C 522.430 806.946, 522.115 802.813, 521.777 781.750 L 521.380 757 532.145 757 L 542.909 757 543.550 753.587 C 543.902 751.710, 543.892 749.235, 543.528 748.087 C 542.909 746.138, 542.139 746, 531.884 746 L 520.902 746 521.072 736.101 C 521.166 730.657, 520.970 725.760, 520.636 725.221 C 520.303 724.681, 518.922 724.027, 517.569 723.768 C 515.477 723.369, 514.238 724.410, 509.304 730.716 M 360.176 745.009 C 345.800 748.040, 333.741 758.721, 328.940 772.673 C 326.496 779.777, 326.313 794.256, 328.568 802.068 C 333.309 818.499, 348.123 828.953, 366.715 828.988 C 377.872 829.009, 386.096 824.922, 393.957 815.451 C 398.872 809.528, 399.883 806.454, 397.651 804.223 C 396.174 802.746, 395.737 802.877, 392.272 805.840 C 386.909 810.426, 382.319 812.270, 376 812.376 C 361.539 812.619, 352.520 803.711, 350.564 787.250 L 350.059 783 373.994 783 C 397.055 783, 397.969 782.926, 399.020 780.962 C 401.581 776.176, 397.080 761.644, 390.840 754.556 C 383.457 746.167, 371.838 742.550, 360.176 745.009 M 439.746 745.086 C 428.860 747.651, 415.154 759.054, 410.354 769.538 C 405.800 779.485, 405.650 793.751, 409.978 805.247 C 412.628 812.286, 420.521 821.227, 426.908 824.426 C 437.225 829.593, 451.733 830.341, 461.170 826.193 C 472.783 821.088, 485.451 804, 477.622 804 C 476.315 804, 474.657 804.708, 473.939 805.573 C 471.105 808.989, 464.856 811.192, 457.880 811.236 C 440.266 811.346, 428.881 797.150, 430.275 776.813 C 430.886 767.901, 433.539 761.407, 438.155 757.523 C 440.546 755.511, 442.241 755, 446.521 755 C 453.556 755, 456.550 757.499, 458.503 765 C 459.299 768.056, 460.888 771.278, 462.079 772.250 C 464.462 774.197, 471.026 774.591, 474.055 772.970 C 476.703 771.554, 479 766.781, 479 762.698 C 479 750.644, 457.359 740.935, 439.746 745.086 M 566.500 747.080 C 559.900 748.662, 553.536 749.966, 552.357 749.978 C 550.049 750.002, 549 751.749, 549 755.568 C 549 757.336, 549.861 758.333, 552.250 759.332 C 554.038 760.079, 556.010 761.322, 556.633 762.095 C 557.363 762.999, 557.948 771.340, 558.277 785.500 C 558.880 811.498, 559.842 815.895, 566.349 822.402 C 571.560 827.613, 577.614 829.556, 585.686 828.607 C 592.437 827.814, 601.931 823.475, 607.659 818.565 C 609.946 816.604, 612.084 815, 612.409 815 C 612.734 815, 613 817.714, 613 821.031 C 613 825.490, 613.394 827.214, 614.511 827.643 C 615.953 828.196, 641.038 826.422, 645.750 825.434 C 647.527 825.061, 648 824.276, 648 821.700 C 648 818.760, 647.581 818.294, 643.750 816.969 C 636.179 814.352, 636.003 813.438, 636.002 776.719 C 636 750.779, 635.749 744.841, 634.634 744.413 C 633.883 744.125, 629.495 744.864, 624.884 746.056 C 620.273 747.248, 613.350 748.763, 609.500 749.423 L 602.500 750.623 602.193 754.255 C 601.901 757.710, 602.061 757.921, 605.467 758.560 C 611.719 759.733, 612 760.873, 612 785.068 C 612 808.918, 612.274 807.848, 605.267 811.396 C 596.635 815.768, 588.132 813.763, 584.500 806.500 C 582.620 802.739, 582.518 800.836, 582.801 774.663 C 583.101 746.795, 582.792 743.817, 579.628 744.102 C 579.007 744.157, 573.100 745.498, 566.500 747.080 M 706.073 745.248 C 702.377 746.220, 691.662 756.338, 690.520 759.936 C 689.244 763.958, 688.500 761.906, 688.500 754.365 C 688.500 744.027, 688.373 743.969, 672.858 747.296 C 666.061 748.754, 659.150 750.071, 657.500 750.223 C 654.718 750.480, 654.500 750.788, 654.500 754.459 C 654.500 758.149, 654.728 758.465, 657.861 759.105 C 664.592 760.482, 664.536 760.218, 664.177 788.741 C 663.999 802.855, 663.430 815.197, 662.911 816.167 C 662.392 817.136, 660.152 818.473, 657.933 819.138 C 654.243 820.244, 653.925 820.609, 654.200 823.423 L 654.500 826.500 676.850 827 C 697.094 827.453, 699.285 827.341, 700.100 825.815 C 700.644 824.799, 700.614 823.114, 700.025 821.565 C 699.286 819.622, 698.343 819, 696.136 819 C 694.533 819, 692.159 818.140, 690.861 817.090 C 688.521 815.197, 688.497 814.976, 688.199 792.203 L 687.897 769.226 690.611 767.091 C 695.037 763.610, 697.554 763.502, 704.950 766.480 C 713.004 769.722, 715.288 769.315, 717.912 764.172 C 720.422 759.252, 722.159 752.577, 721.426 750.667 C 719.902 746.695, 711.651 743.783, 706.073 745.248 M 756.045 745.032 C 743.889 747.580, 732.248 756.991, 726.735 768.726 C 723.958 774.636, 723.503 776.791, 723.168 785.620 C 722.395 805.946, 729.248 818.161, 745.664 825.719 C 753.874 829.498, 767.055 830.111, 775.079 827.087 C 781.734 824.579, 787.666 819.729, 791.902 813.335 C 795.306 808.194, 795.733 805.853, 793.587 804.072 C 792.460 803.137, 791.096 803.715, 786.851 806.928 C 778.388 813.334, 768.217 814.301, 759.148 809.562 C 752.290 805.979, 747.058 796.782, 747.022 788.250 L 747 783 770.521 783 L 794.043 783 795.161 780.547 C 796.548 777.502, 794.773 767.436, 791.834 761.675 C 788.971 756.063, 782.491 749.416, 777.551 747.024 C 772.568 744.613, 762.496 743.679, 756.045 745.032 M 357.934 757.709 C 354.537 760.567, 351.059 767.061, 351.022 770.614 C 351.004 772.376, 351.774 772.834, 355.640 773.364 C 358.191 773.714, 364.041 774, 368.640 774 L 377 774 377 769.468 C 377 760.233, 372.788 755, 365.354 755 C 362.246 755, 360.316 755.705, 357.934 757.709 M 753.560 758.081 C 750.162 761.065, 745.792 771.125, 747.257 772.591 C 747.596 772.929, 753.583 773.452, 760.562 773.754 L 773.252 774.302 772.820 767.519 C 772.431 761.403, 772.073 760.454, 769.178 757.868 C 764.565 753.746, 758.402 753.830, 753.560 758.081" stroke="none" fill="#ddece3" fill-rule="evenodd"/></svg>